<svg width="61" height="58" viewBox="0 0 61 58" fill="none" xmlns="http://www.w3.org/2000/svg">
<path d="M28.1208 57.7956C26.863 57.29 25.4978 57.3116 24.1907 57.0306C20.2651 56.1878 16.6617 54.6708 13.3762 52.4493C13.3045 52.4017 13.2642 52.3067 13.1658 52.177C18.9132 51.3299 24.4906 50.0419 29.9113 48.1791C38.6937 45.1623 46.7106 40.8835 53.5368 34.6727C55.8376 32.5765 57.8966 30.2772 59.7319 27.7877C59.9333 27.5111 60.0273 27.0918 60.5152 27.1091C60.5152 28.4879 60.5152 29.8623 60.5152 31.241C60.0945 32.1789 60.1079 33.1989 59.9378 34.18C58.0488 45.0888 48.3265 54.848 37.1359 57.0177C35.7617 57.2856 34.3831 57.5363 33.0044 57.7956C31.384 57.7956 29.7502 57.7956 28.1208 57.7956Z" fill="#006DF0"/>
<path d="M47.8343 32.4468C47.6507 32.114 47.7492 31.7509 47.7492 31.4052C47.7403 26.2273 47.7447 21.0452 47.7447 15.8674C47.7447 13.5854 46.8674 12.7555 44.4726 12.7555C43.3849 12.7555 42.2972 12.7382 41.2139 12.7599C39.504 12.7901 38.4969 13.7583 38.4924 15.4049C38.4834 22.0263 38.4342 28.652 38.5237 35.2734C38.5506 37.0886 37.9687 38.2297 36.1334 38.7137C35.8156 38.7959 35.5157 38.9558 35.0636 39.133C35.0636 38.7094 35.0636 38.368 35.0636 38.0309C35.0636 32.6542 35.0636 27.2776 35.0636 21.901C35.0636 19.8307 34.1102 18.9101 31.9616 18.8972C30.941 18.8928 29.9249 18.8928 28.9043 18.8972C26.6975 18.9058 25.7665 19.8091 25.762 21.9658C25.7575 27.8352 25.762 33.7002 25.762 39.5695C25.762 41.7867 25.1264 42.4782 22.8704 42.811C22.378 42.8845 22.378 42.6641 22.3825 42.3356C22.3914 41.5144 22.3825 40.6976 22.3825 39.8764C22.3825 35.9736 22.3869 32.0751 22.3825 28.1723C22.378 25.9853 21.5051 25.1166 19.2804 25.069C18.1927 25.0431 17.1095 25.0129 16.0218 25.0085C14.0836 24.9999 13.063 25.9767 13.0585 27.8524C13.0496 32.6715 13.0585 37.4906 13.054 42.3097C13.054 44.0515 12.5258 44.6263 10.7219 44.8727C9.61629 45.0239 8.51066 45.1968 7.38266 45.0671C6.10693 44.9202 5.13112 44.2935 4.54921 43.2173C-0.938637 33.1253 -1.0953 23.042 5.34598 13.3866C11.6574 3.91695 20.9993 -0.724921 32.6241 0.0919452C44.6382 0.934744 53.1117 7.1412 58.0624 17.7691C58.2683 18.2143 58.4653 18.6681 58.6443 19.1262C59.2173 20.5741 59.1143 21.9701 58.134 23.2235C55.3095 26.8411 51.7868 29.7628 48.0357 32.4381C47.9954 32.4684 47.9148 32.4468 47.8343 32.4468Z" fill="black"/>
</svg>
