<svg width="66" height="66" viewBox="0 0 66 66" fill="none" xmlns="http://www.w3.org/2000/svg">
<path d="M33.034 65.5714C51.0812 65.5714 65.7115 50.8928 65.7115 32.7857C65.7115 14.6787 51.0812 0 33.034 0C14.9867 0 0.356445 14.6787 0.356445 32.7857C0.356445 50.8928 14.9867 65.5714 33.034 65.5714Z" fill="#82BB37"/>
<path d="M55.6161 33.8003C55.9532 33.4684 56.1568 33.0472 56.3794 32.6387C56.9265 31.6431 57.3081 30.59 57.3527 29.4412C57.4036 28.0435 56.9138 26.8436 56.0168 25.7969C55.0118 24.6162 53.7141 23.8567 52.34 23.1993C50.8643 22.4909 49.2867 22.0633 47.7282 21.591C46.0234 21.074 44.3758 20.4167 42.7219 19.7593C42.5247 19.6827 42.3339 19.587 42.1303 19.5359C41.8504 19.4657 41.7105 19.2679 41.6214 19.019C41.2016 17.8318 40.3492 17.0596 39.236 16.5618C37.9637 15.9938 36.6279 15.8916 35.2538 16.0767C34.6368 16.1597 34.0198 16.2682 33.4282 16.466C33.2692 16.5171 33.1356 16.466 32.9956 16.4341C31.2845 16.032 29.5542 15.8661 27.7985 15.9363C26.3672 15.9938 25.0059 16.3831 23.6637 16.8362C21.7745 17.4681 19.9552 18.2595 18.2694 19.3444C16.342 20.589 14.8026 22.1909 13.7784 24.2524C13.0405 25.7395 12.6398 27.3287 12.4171 28.9689C12.2199 30.4049 12.1372 31.8537 12.0036 33.3025C11.8764 34.6427 11.7683 35.9766 11.6156 37.3169C11.4884 38.4274 11.3612 39.5443 11.1894 40.6485C11.0113 41.7973 10.7823 42.9333 10.496 44.063C10.2734 44.9437 10.0253 45.8181 9.73906 46.6797C9.44008 47.5924 9.10294 48.4923 8.70854 49.373C8.59404 49.6283 8.4859 49.59 8.35868 49.4049C7.91339 48.7476 7.49355 48.0774 7.10552 47.3881C6.71749 46.6988 6.3549 45.9904 6.02411 45.2692C5.69969 44.5672 5.39435 43.8587 5.12718 43.1375C4.77096 42.1547 4.44653 41.1654 4.19209 40.1506C3.88039 38.8997 3.65775 37.6296 3.47963 36.3532C3.23791 34.6108 3.21246 32.8621 3.26335 31.1133C3.2888 30.1752 3.42238 29.2433 3.5496 28.3052C3.74044 26.8436 4.07122 25.414 4.4847 24.0035C4.79004 22.9632 5.15899 21.9356 5.57883 20.9336C6.03684 19.8486 6.53937 18.7892 7.11824 17.7744C7.72256 16.7213 8.38412 15.7066 9.1093 14.7237C10.0953 13.3834 11.1831 12.1261 12.379 10.9709C13.5876 9.79657 14.8853 8.73712 16.272 7.77978C17.4934 6.93732 18.7656 6.19059 20.0887 5.53322C21.1256 5.02264 22.2007 4.58226 23.2948 4.19294C24.4398 3.78448 25.5975 3.44622 26.7807 3.19092C27.7158 2.99307 28.6636 2.84628 29.6115 2.71225C31.1509 2.49526 32.6839 2.46973 34.2297 2.48887C35.1266 2.50164 36.0172 2.6229 36.9078 2.71225C37.8238 2.80799 38.7207 2.96754 39.6176 3.15901C40.5718 3.36325 41.5133 3.62492 42.442 3.93127C43.9941 4.44185 45.5081 5.05455 46.9585 5.80765C48.148 6.42673 49.3058 7.1224 50.4062 7.90104C51.3731 8.59032 52.3019 9.31152 53.1797 10.1093C53.7904 10.6582 54.4202 11.2007 54.9736 11.807C55.9341 12.8601 56.8692 13.9387 57.6835 15.1066C58.4595 16.2171 59.1529 17.3787 59.8081 18.5722C60.6414 20.0976 61.2839 21.6931 61.831 23.3334C62.289 24.6992 62.6261 26.0905 62.8615 27.5074C63.0396 28.5668 63.1795 29.6327 63.2241 30.7176C63.2686 31.6303 63.275 32.543 63.2686 33.4556C63.2622 34.3938 63.1986 35.332 63.046 36.2638C62.9505 36.8446 62.9251 37.4382 62.8106 38.019C62.5053 39.589 62.1109 41.1399 61.5702 42.6525C61.1758 43.7502 60.7623 44.8352 60.2279 45.8628C59.8272 46.635 59.401 47.4009 58.9557 48.154C58.3959 49.0986 57.7598 49.9921 57.1237 50.8792C56.7293 51.4281 56.2649 51.9259 55.8323 52.4493C55.1962 53.2151 54.4711 53.9044 53.7522 54.5937C52.9189 55.3979 52.0156 56.1255 51.0869 56.8211C50.0246 57.6189 48.9177 58.3465 47.7473 58.972C46.9394 59.4059 46.1188 59.808 45.2791 60.1846C44.1214 60.6952 42.9445 61.1292 41.7423 61.4993C40.839 61.7801 39.9166 61.9971 38.9942 62.1758C38.6635 62.2397 38.5871 62.1758 38.549 61.8312C38.2627 58.972 38.8288 56.2595 39.9039 53.63C40.9853 50.9877 42.4802 48.5944 44.1913 46.3287C46.0234 43.9034 48.059 41.6632 50.2281 39.5379C51.424 38.3636 52.6517 37.2276 53.8158 36.0213C54.3629 35.4597 54.8782 34.8725 55.3553 34.2407C55.4125 34.1641 55.4825 34.0939 55.457 33.9854H55.4507C55.5016 33.9918 55.5206 33.9662 55.5143 33.9215C55.5461 33.896 55.5779 33.8769 55.6097 33.8513C55.6033 33.8322 55.6033 33.8194 55.6161 33.8003ZM36.647 4.14188C35.7564 4.12912 34.8785 4.20571 34.0071 4.39079C33.9371 4.40356 33.8417 4.38441 33.8417 4.49291C33.8417 4.60141 33.9244 4.62693 34.0134 4.6397C35.2729 4.86308 36.5197 5.15028 37.7665 5.45025C38.7207 5.68001 39.6558 5.95445 40.5845 6.26718C42.5247 6.91817 44.4267 7.67766 46.3096 8.48182C48.0526 9.22855 49.6556 10.1987 51.0296 11.5262C52.1301 12.5792 53.0652 13.7663 53.9049 15.0364C55.4252 17.3213 56.7674 19.6891 57.798 22.2356C58.7458 24.5715 59.5855 26.9393 60.1771 29.3901C60.5714 31.0112 60.934 32.6323 61.1821 34.2853C61.2012 34.4066 61.1948 34.5917 61.3412 34.5981C61.4875 34.6045 61.462 34.4066 61.5129 34.2981C61.5193 34.279 61.5256 34.2598 61.5256 34.2343C61.6465 33.2642 61.7101 32.2941 61.7228 31.3176C61.7292 30.5262 61.691 29.7284 61.6147 28.937C61.5129 27.8967 61.3412 26.8691 61.1249 25.848C60.6859 23.8057 59.9799 21.8654 59.0066 20.0273C58.2305 18.5658 57.3718 17.1553 56.3349 15.8597C54.9418 14.1238 53.2942 12.6494 51.6021 11.2198C50.3172 10.1348 49.0259 9.04985 47.7027 8.00954C46.6849 7.21175 45.6163 6.47779 44.4522 5.91615C41.984 4.72905 39.3695 4.18656 36.647 4.14188Z" fill="#FDE981"/>
<path d="M34.8209 25.2038C34.7954 28.3758 32.2955 31.0309 28.9749 31.0117C25.5017 30.9862 23.059 28.1142 23.1926 24.923C23.3198 21.9361 25.7244 19.3194 29.0322 19.3385C32.2828 19.3513 34.859 22.0063 34.8209 25.2038ZM28.9813 29.3268C31.2713 29.3268 33.0906 27.5206 33.097 25.2485C33.097 22.9637 31.2777 21.1192 29.0258 21.1128C26.7485 21.1128 24.8783 22.9828 24.9038 25.2358C24.9228 27.5142 26.7294 29.3268 28.9813 29.3268Z" fill="white"/>
<path d="M55.616 33.8008C55.6033 33.8136 55.5969 33.8327 55.6033 33.8518C55.546 33.8391 55.5142 33.8646 55.5078 33.9221C55.4633 33.9221 55.4379 33.9412 55.4442 33.9859H55.4506C55.2407 33.9859 55.1516 34.1646 55.018 34.2731C53.256 35.6836 51.284 36.7175 49.223 37.5919C47.0792 38.4981 44.8655 39.1747 42.5691 39.5448C40.3936 39.8959 38.2244 39.8639 36.138 39.0151C35.2856 38.6705 34.5159 38.1918 33.8543 37.5472C33.8098 37.5025 33.7652 37.4514 33.7271 37.4004C33.7143 37.3876 33.7207 37.3621 33.7207 37.311C33.9179 37.4004 34.1087 37.4642 34.2869 37.5599C35.928 38.4279 37.7028 38.696 39.5348 38.7279C43.5806 38.7981 47.3973 37.8344 51.0741 36.2324C52.5817 35.5751 54.032 34.8156 55.3488 33.8136C55.4251 33.7625 55.5206 33.5966 55.616 33.8008Z" fill="#5B5B5D"/>
<path d="M49.7895 32.2557C49.077 32.2557 48.5236 31.694 48.53 30.9792C48.5363 30.2835 49.0897 29.7346 49.7895 29.7346C50.5147 29.7346 51.0554 30.2771 51.0554 30.9983C51.0617 31.7132 50.521 32.2557 49.7895 32.2557Z" fill="white"/>
<path d="M59.5161 52.1621C59.4779 52.1558 59.4461 52.1494 59.408 52.1366C59.4207 52.0983 59.4334 52.0664 59.4461 52.0281C59.5034 52.06 59.5161 52.1111 59.5161 52.1621Z" fill="#F0EFEF"/>
<path d="M36.6472 4.14205C39.3698 4.19311 41.9843 4.7356 44.4461 5.91632C45.6165 6.47796 46.6788 7.20554 47.6966 8.00971C49.0198 9.05002 50.3111 10.1286 51.5961 11.22C53.2881 12.6496 54.9357 14.1239 56.3288 15.8599C57.3657 17.1555 58.2308 18.566 59.0005 20.0275C59.9738 21.872 60.6862 23.8058 61.1188 25.8481C61.3414 26.8693 61.5068 27.8969 61.6086 28.9372C61.6849 29.7286 61.7231 30.5264 61.7167 31.3178C61.7104 32.2942 61.6468 33.2643 61.5195 34.2345C61.5195 34.2536 61.5132 34.2791 61.5068 34.2983C61.4559 34.4068 61.4814 34.6046 61.3351 34.5982C61.1951 34.5919 61.1951 34.4068 61.176 34.2855C60.9279 32.6389 60.5654 31.0114 60.171 29.3903C59.5794 26.9395 58.7397 24.5717 57.7919 22.2358C56.755 19.6893 55.4128 17.3214 53.8988 15.0366C53.0528 13.7665 52.1177 12.5858 51.0236 11.5263C49.6495 10.2052 48.0465 9.22872 46.3035 8.48199C44.4206 7.67783 42.5186 6.91834 40.5785 6.26735C39.6497 5.95461 38.7146 5.68018 37.7604 5.45042C36.5136 5.15045 35.2668 4.86325 34.0073 4.63987C33.9183 4.62072 33.8356 4.59519 33.8356 4.49308C33.8356 4.38458 33.931 4.40372 34.001 4.39096C34.8788 4.19949 35.763 4.12929 36.6472 4.14205Z" fill="white"/>
<path d="M55.4509 33.9872C55.4509 33.9415 55.4704 33.9154 55.516 33.9219C55.516 33.9676 55.4965 33.9937 55.4509 33.9872Z" fill="#82BB37"/>
<path d="M55.5148 33.9284C55.5211 33.871 55.5529 33.8455 55.6102 33.8582C55.5784 33.8774 55.5466 33.9029 55.5148 33.9284Z" fill="#82BB37"/>
<path d="M28.9825 29.3266C26.7306 29.3266 24.924 27.5204 24.8986 25.2355C24.8731 22.9762 26.7433 21.1062 29.0206 21.1126C31.2789 21.1126 33.0982 22.9635 33.0918 25.2483C33.0918 27.5204 31.2725 29.3266 28.9825 29.3266Z" fill="#5B5B5D"/>
</svg>
