<svg width="76" height="71" viewBox="0 0 76 71" fill="none" xmlns="http://www.w3.org/2000/svg">
<path d="M47.5 8.875C46.8701 8.875 46.266 8.64124 45.8206 8.22514C45.3752 7.80905 45.125 7.2447 45.125 6.65625C45.125 6.36203 44.9999 6.07985 44.7772 5.8718C44.5545 5.66376 44.2524 5.54688 43.9375 5.54688H10.6875C10.3726 5.54688 10.0705 5.66376 9.84781 5.8718C9.62511 6.07985 9.5 6.36203 9.5 6.65625C9.5 7.2447 9.24978 7.80905 8.80438 8.22514C8.35898 8.64124 7.75489 8.875 7.125 8.875C6.81006 8.875 6.50801 8.99188 6.28531 9.19993C6.06261 9.40798 5.9375 9.69015 5.9375 9.98438V21.0781C5.9375 21.3723 6.06261 21.6545 6.28531 21.8626C6.50801 22.0706 6.81006 22.1875 7.125 22.1875C7.75489 22.1875 8.35898 22.4213 8.80438 22.8374C9.24978 23.2535 9.5 23.8178 9.5 24.4062C9.5 24.7005 9.62511 24.9826 9.84781 25.1907C10.0705 25.3987 10.3726 25.5156 10.6875 25.5156H43.9375C44.2524 25.5156 44.5545 25.3987 44.7772 25.1907C44.9999 24.9826 45.125 24.7005 45.125 24.4062C45.125 23.8178 45.3752 23.2535 45.8206 22.8374C46.266 22.4213 46.8701 22.1875 47.5 22.1875C47.8149 22.1875 48.117 22.0706 48.3397 21.8626C48.5624 21.6545 48.6875 21.3723 48.6875 21.0781V9.98438C48.6875 9.69015 48.5624 9.40798 48.3397 9.19993C48.117 8.99188 47.8149 8.875 47.5 8.875ZM35.625 15.5312C35.625 17.0671 35.1375 18.5686 34.2241 19.8456C33.3107 21.1227 32.0125 22.118 30.4936 22.7058C28.9746 23.2935 27.3033 23.4473 25.6908 23.1477C24.0783 22.848 22.5972 22.1084 21.4347 21.0224C20.2722 19.9363 19.4805 18.5526 19.1597 17.0462C18.839 15.5399 19.0036 13.9785 19.6328 12.5595C20.2619 11.1405 21.3273 9.92767 22.6943 9.07437C24.0613 8.22107 25.6684 7.76562 27.3125 7.76562C29.5163 7.76797 31.6292 8.58689 33.1875 10.0427C34.7459 11.4985 35.6225 13.4724 35.625 15.5312ZM11.7242 23.2969C11.5105 22.5299 11.0817 21.8302 10.482 21.2697C9.88229 20.7092 9.13336 20.3084 8.3125 20.1085V10.954C9.13336 10.7541 9.88229 10.3533 10.482 9.79281C11.0817 9.23235 11.5105 8.53255 11.7242 7.76562H20.6103C19.3663 8.69895 18.3624 9.88119 17.6726 11.2252C16.9828 12.5692 16.6247 14.0407 16.6247 15.5312C16.6247 17.0218 16.9828 18.4933 17.6726 19.8373C18.3624 21.1813 19.3663 22.3636 20.6103 23.2969H11.7242ZM46.3125 20.1085C45.4916 20.3084 44.7427 20.7092 44.143 21.2697C43.5433 21.8302 43.1145 22.5299 42.9008 23.2969H34.0147C35.2587 22.3636 36.2626 21.1813 36.9524 19.8373C37.6422 18.4933 38.0003 17.0218 38.0003 15.5312C38.0003 14.0407 37.6422 12.5692 36.9524 11.2252C36.2626 9.88119 35.2587 8.69895 34.0147 7.76562H42.9008C43.1145 8.53255 43.5433 9.23235 44.143 9.79281C44.7427 10.3533 45.4916 10.7541 46.3125 10.954V20.1085Z" fill="url(#paint0_linear)"/>
<path d="M27.3125 18.8594C26.9976 18.8594 26.6955 18.7425 26.4728 18.5344C26.2501 18.3264 26.125 18.0442 26.125 17.75C26.125 17.4558 25.9999 17.1736 25.7772 16.9656C25.5545 16.7575 25.2524 16.6406 24.9375 16.6406C24.6226 16.6406 24.3205 16.7575 24.0978 16.9656C23.8751 17.1736 23.75 17.4558 23.75 17.75C23.753 18.4359 23.9829 19.1041 24.408 19.6633C24.8331 20.2225 25.4328 20.6454 26.125 20.874V21.0781C26.125 21.3723 26.2501 21.6545 26.4728 21.8626C26.6955 22.0706 26.9976 22.1875 27.3125 22.1875C27.6274 22.1875 27.9295 22.0706 28.1522 21.8626C28.3749 21.6545 28.5 21.3723 28.5 21.0781V20.874C29.2917 20.6135 29.9591 20.0996 30.3841 19.4235C30.8091 18.7473 30.9643 17.9524 30.822 17.1796C30.6798 16.4068 30.2494 15.706 29.607 15.2012C28.9647 14.6965 28.1519 14.4204 27.3125 14.4219C27.0776 14.4219 26.848 14.3568 26.6528 14.2349C26.4575 14.113 26.3053 13.9398 26.2154 13.737C26.1255 13.5343 26.102 13.3113 26.1478 13.0961C26.1936 12.8809 26.3067 12.6832 26.4728 12.5281C26.6389 12.3729 26.8505 12.2672 27.0808 12.2244C27.3112 12.1816 27.5499 12.2036 27.7669 12.2876C27.9839 12.3715 28.1694 12.5137 28.2999 12.6962C28.4304 12.8786 28.5 13.0931 28.5 13.3125C28.5 13.6067 28.6251 13.8889 28.8478 14.0969C29.0705 14.305 29.3726 14.4219 29.6875 14.4219C30.0024 14.4219 30.3045 14.305 30.5272 14.0969C30.7499 13.8889 30.875 13.6067 30.875 13.3125C30.872 12.6266 30.6421 11.9584 30.217 11.3992C29.7919 10.84 29.1922 10.4171 28.5 10.1885V9.98438C28.5 9.69015 28.3749 9.40798 28.1522 9.19993C27.9295 8.99188 27.6274 8.875 27.3125 8.875C26.9976 8.875 26.6955 8.99188 26.4728 9.19993C26.2501 9.40798 26.125 9.69015 26.125 9.98438V10.1885C25.3333 10.449 24.6659 10.9629 24.2409 11.639C23.8159 12.3152 23.6607 13.1101 23.803 13.8829C23.9452 14.6557 24.3756 15.3565 25.018 15.8613C25.6603 16.366 26.4731 16.6421 27.3125 16.6406C27.6274 16.6406 27.9295 16.7575 28.1522 16.9656C28.3749 17.1736 28.5 17.4558 28.5 17.75C28.5 18.0442 28.3749 18.3264 28.1522 18.5344C27.9295 18.7425 27.6274 18.8594 27.3125 18.8594Z" fill="url(#paint1_linear)"/>
<path d="M42.75 14.4219H41.5625C41.2476 14.4219 40.9455 14.5388 40.7228 14.7468C40.5001 14.9549 40.375 15.237 40.375 15.5312C40.375 15.8255 40.5001 16.1076 40.7228 16.3157C40.9455 16.5237 41.2476 16.6406 41.5625 16.6406H42.75C43.0649 16.6406 43.367 16.5237 43.5897 16.3157C43.8124 16.1076 43.9375 15.8255 43.9375 15.5312C43.9375 15.237 43.8124 14.9549 43.5897 14.7468C43.367 14.5388 43.0649 14.4219 42.75 14.4219Z" fill="url(#paint2_linear)"/>
<path d="M13.0625 14.4219H11.875C11.5601 14.4219 11.258 14.5388 11.0353 14.7468C10.8126 14.9549 10.6875 15.237 10.6875 15.5312C10.6875 15.8255 10.8126 16.1076 11.0353 16.3157C11.258 16.5237 11.5601 16.6406 11.875 16.6406H13.0625C13.3774 16.6406 13.6795 16.5237 13.9022 16.3157C14.1249 16.1076 14.25 15.8255 14.25 15.5312C14.25 15.237 14.1249 14.9549 13.9022 14.7468C13.6795 14.5388 13.3774 14.4219 13.0625 14.4219Z" fill="url(#paint3_linear)"/>
<path d="M32.0625 45.4844C31.7476 45.4844 31.4455 45.6013 31.2228 45.8093C31.0001 46.0174 30.875 46.2995 30.875 46.5938C30.875 47.1822 30.6248 47.7465 30.1794 48.1626C29.734 48.5787 29.1299 48.8125 28.5 48.8125C28.1851 48.8125 27.883 48.9294 27.6603 49.1374C27.4376 49.3455 27.3125 49.6277 27.3125 49.9219V61.0156C27.3125 61.3098 27.4376 61.592 27.6603 61.8001C27.883 62.0081 28.1851 62.125 28.5 62.125C29.1299 62.125 29.734 62.3588 30.1794 62.7749C30.6248 63.191 30.875 63.7553 30.875 64.3438C30.875 64.638 31.0001 64.9201 31.2228 65.1282C31.4455 65.3362 31.7476 65.4531 32.0625 65.4531H65.3125C65.6274 65.4531 65.9295 65.3362 66.1522 65.1282C66.3749 64.9201 66.5 64.638 66.5 64.3438C66.5 63.7553 66.7502 63.191 67.1956 62.7749C67.641 62.3588 68.2451 62.125 68.875 62.125C69.1899 62.125 69.492 62.0081 69.7147 61.8001C69.9374 61.592 70.0625 61.3098 70.0625 61.0156V49.9219C70.0625 49.6277 69.9374 49.3455 69.7147 49.1374C69.492 48.9294 69.1899 48.8125 68.875 48.8125C68.2451 48.8125 67.641 48.5787 67.1956 48.1626C66.7502 47.7465 66.5 47.1822 66.5 46.5938C66.5 46.2995 66.3749 46.0174 66.1522 45.8093C65.9295 45.6013 65.6274 45.4844 65.3125 45.4844H32.0625ZM57 55.4688C57 57.0046 56.5125 58.5061 55.5991 59.7831C54.6857 61.0602 53.3875 62.0555 51.8686 62.6433C50.3496 63.231 48.6783 63.3848 47.0658 63.0852C45.4533 62.7855 43.9722 62.0459 42.8097 60.9599C41.6471 59.8738 40.8555 58.4901 40.5347 56.9837C40.214 55.4774 40.3786 53.916 41.0078 52.497C41.6369 51.078 42.7023 49.8652 44.0693 49.0119C45.4363 48.1586 47.0434 47.7031 48.6875 47.7031C50.8913 47.7055 53.0042 48.5244 54.5625 49.9802C56.1209 51.436 56.9975 53.4099 57 55.4688ZM33.0992 63.2344C32.8855 62.4674 32.4567 61.7677 31.857 61.2072C31.2573 60.6467 30.5084 60.2459 29.6875 60.046V50.8915C30.5084 50.6916 31.2573 50.2908 31.857 49.7303C32.4567 49.1698 32.8855 48.4701 33.0992 47.7031H41.9852C40.7413 48.6364 39.7374 49.8187 39.0476 51.1627C38.3578 52.5067 37.9997 53.9782 37.9997 55.4688C37.9997 56.9593 38.3578 58.4308 39.0476 59.7748C39.7374 61.1188 40.7413 62.3011 41.9852 63.2344H33.0992ZM64.2758 47.7031C64.4895 48.4701 64.9183 49.1698 65.518 49.7303C66.1177 50.2908 66.8666 50.6916 67.6875 50.8915V60.046C66.8666 60.2459 66.1177 60.6467 65.518 61.2072C64.9183 61.7677 64.4895 62.4674 64.2758 63.2344H55.3898C56.6337 62.3011 57.6376 61.1188 58.3274 59.7748C59.0172 58.4308 59.3753 56.9593 59.3753 55.4688C59.3753 53.9782 59.0172 52.5067 58.3274 51.1627C57.6376 49.8187 56.6337 48.6364 55.3898 47.7031H64.2758Z" fill="url(#paint4_linear)"/>
<path d="M72.4375 42.1562H66.5522L73.3744 33.9624C73.5109 33.7985 73.5954 33.6021 73.6183 33.3956C73.6412 33.189 73.6016 32.9806 73.504 32.794C73.4064 32.6075 73.2547 32.4503 73.0661 32.3403C72.8776 32.2303 72.6598 32.1719 72.4375 32.1719H68.875V16.6406C68.8731 15.17 68.2469 13.7602 67.1339 12.7203C66.0208 11.6805 64.5116 11.0955 62.9375 11.0938H52.25V3.32812C52.25 3.0339 52.1249 2.75173 51.9022 2.54368C51.6795 2.33563 51.3774 2.21875 51.0625 2.21875H3.5625C3.24756 2.21875 2.94551 2.33563 2.72281 2.54368C2.50011 2.75173 2.375 3.0339 2.375 3.32812V27.7344C2.375 28.0286 2.50011 28.3108 2.72281 28.5188C2.94551 28.7269 3.24756 28.8438 3.5625 28.8438H10.3716L2.62556 38.147C2.48908 38.3109 2.40459 38.5073 2.38168 38.7138C2.35878 38.9204 2.39839 39.1288 2.49601 39.3153C2.59364 39.5019 2.74534 39.6591 2.93388 39.7691C3.12242 39.8791 3.34022 39.9374 3.5625 39.9375H7.125V55.4688C7.12689 56.9393 7.75305 58.3492 8.86614 59.389C9.97923 60.4289 11.4884 61.0139 13.0625 61.0156H23.75V67.6719C23.75 67.9661 23.8751 68.2483 24.0978 68.4563C24.3205 68.6644 24.6226 68.7812 24.9375 68.7812H72.4375C72.7524 68.7812 73.0545 68.6644 73.2772 68.4563C73.4999 68.2483 73.625 67.9661 73.625 67.6719V43.2656C73.625 42.9714 73.4999 42.6892 73.2772 42.4812C73.0545 42.2731 72.7524 42.1562 72.4375 42.1562ZM62.9375 13.3125C63.8823 13.3125 64.7885 13.6631 65.4566 14.2873C66.1247 14.9114 66.5 15.758 66.5 16.6406V33.2812C66.5 33.5755 66.6251 33.8576 66.8478 34.0657C67.0705 34.2737 67.3726 34.3906 67.6875 34.3906H70.0091L64.125 41.4585L58.2409 34.3906H60.5625C60.8774 34.3906 61.1795 34.2737 61.4022 34.0657C61.6249 33.8576 61.75 33.5755 61.75 33.2812V19.9688C61.75 19.3803 61.4998 18.816 61.0544 18.3999C60.609 17.9838 60.0049 17.75 59.375 17.75H52.25V13.3125H62.9375ZM4.75 4.4375H49.875V26.625H4.75V4.4375ZM51.0625 28.8438C51.3774 28.8438 51.6795 28.7269 51.9022 28.5188C52.1249 28.3108 52.25 28.0286 52.25 27.7344V19.9688H59.375V32.1719H55.8125C55.5902 32.1719 55.3724 32.2303 55.1839 32.3403C54.9953 32.4503 54.8436 32.6075 54.746 32.794C54.6484 32.9806 54.6088 33.189 54.6317 33.3956C54.6546 33.6021 54.7391 33.7985 54.8756 33.9624L61.6978 42.1562H24.9375C24.6226 42.1562 24.3205 42.2731 24.0978 42.4812C23.8751 42.6892 23.75 42.9714 23.75 43.2656V52.1406H16.625V39.9375H20.1875C20.4098 39.9374 20.6276 39.8791 20.8161 39.7691C21.0047 39.6591 21.1564 39.5019 21.254 39.3153C21.3516 39.1288 21.3912 38.9204 21.3683 38.7138C21.3454 38.5073 21.2609 38.3109 21.1244 38.147L13.3784 28.8438H51.0625ZM13.0625 58.7969C12.1177 58.7969 11.2115 58.4462 10.5434 57.8221C9.87533 57.1979 9.5 56.3514 9.5 55.4688V38.8281C9.5 38.5339 9.37489 38.2517 9.15219 38.0437C8.92949 37.8356 8.62744 37.7188 8.3125 37.7188H5.99094L11.875 30.6509L17.7591 37.7188H15.4375C15.1226 37.7188 14.8205 37.8356 14.5978 38.0437C14.3751 38.2517 14.25 38.5339 14.25 38.8281V52.1406C14.25 52.7291 14.5002 53.2934 14.9456 53.7095C15.391 54.1256 15.9951 54.3594 16.625 54.3594H23.75V58.7969H13.0625ZM71.25 66.5625H26.125V44.375H71.25V66.5625Z" fill="url(#paint5_linear)"/>
<path d="M62.9375 56.5781H64.125C64.4399 56.5781 64.742 56.4612 64.9647 56.2532C65.1874 56.0451 65.3125 55.763 65.3125 55.4688C65.3125 55.1745 65.1874 54.8924 64.9647 54.6843C64.742 54.4763 64.4399 54.3594 64.125 54.3594H62.9375C62.6226 54.3594 62.3205 54.4763 62.0978 54.6843C61.8751 54.8924 61.75 55.1745 61.75 55.4688C61.75 55.763 61.8751 56.0451 62.0978 56.2532C62.3205 56.4612 62.6226 56.5781 62.9375 56.5781Z" fill="url(#paint6_linear)"/>
<path d="M34.4375 54.3594H33.25C32.9351 54.3594 32.633 54.4763 32.4103 54.6843C32.1876 54.8924 32.0625 55.1745 32.0625 55.4688C32.0625 55.763 32.1876 56.0451 32.4103 56.2532C32.633 56.4612 32.9351 56.5781 33.25 56.5781H34.4375C34.7524 56.5781 35.0545 56.4612 35.2772 56.2532C35.4999 56.0451 35.625 55.763 35.625 55.4688C35.625 55.1745 35.4999 54.8924 35.2772 54.6843C35.0545 54.4763 34.7524 54.3594 34.4375 54.3594Z" fill="url(#paint7_linear)"/>
<path d="M43.9375 55.4688C43.9391 55.8394 43.9621 56.2098 44.0064 56.5781H43.9375C43.6226 56.5781 43.3205 56.695 43.0978 56.9031C42.8751 57.1111 42.75 57.3933 42.75 57.6875C42.75 57.9817 42.8751 58.2639 43.0978 58.4719C43.3205 58.68 43.6226 58.7969 43.9375 58.7969H44.5586C45.3684 60.7937 46.8956 62.125 48.6875 62.125C49.3823 62.0955 50.0578 61.9017 50.6505 61.5618C51.2433 61.2218 51.734 60.7469 52.0766 60.1814C52.2436 59.9357 52.3006 59.6386 52.2353 59.354C52.17 59.0694 51.9876 58.8202 51.7274 58.6601C51.4673 58.5 51.1502 58.4419 50.8445 58.4982C50.5389 58.5545 50.2692 58.7207 50.0935 58.9611C49.8441 59.3138 49.3311 59.9062 48.6875 59.9062C48.1686 59.9062 47.6187 59.4858 47.1865 58.7969H48.6875C49.0024 58.7969 49.3045 58.68 49.5272 58.4719C49.7499 58.2639 49.875 57.9817 49.875 57.6875C49.875 57.3933 49.7499 57.1111 49.5272 56.9031C49.3045 56.695 49.0024 56.5781 48.6875 56.5781H46.4039C46.3455 56.2108 46.3149 55.8401 46.3125 55.4688H48.6875C49.0024 55.4688 49.3045 55.3519 49.5272 55.1438C49.7499 54.9358 49.875 54.6536 49.875 54.3594C49.875 54.0652 49.7499 53.783 49.5272 53.5749C49.3045 53.3669 49.0024 53.25 48.6875 53.25H46.6687C47.12 51.9077 47.9287 51.0312 48.6875 51.0312C49.3418 51.0312 49.8607 51.6403 50.1125 52.002C50.2848 52.246 50.5533 52.4166 50.8596 52.4768C51.1658 52.5369 51.4851 52.4816 51.748 52.323C52.0109 52.1644 52.1961 51.9152 52.2635 51.6297C52.3308 51.3442 52.2747 51.0454 52.1075 50.7983C51.7664 50.222 51.2729 49.737 50.6743 49.3894C50.0756 49.0418 49.3916 48.8432 48.6875 48.8125C46.5821 48.8125 44.8424 50.6419 44.2035 53.25H43.9375C43.6226 53.25 43.3205 53.3669 43.0978 53.5749C42.8751 53.783 42.75 54.0652 42.75 54.3594C42.75 54.6536 42.8751 54.9358 43.0978 55.1438C43.3205 55.3519 43.6226 55.4688 43.9375 55.4688Z" fill="url(#paint8_linear)"/>
<defs>
<linearGradient id="paint0_linear" x1="27.3125" y1="72.6862" x2="27.3125" y2="0.20856" gradientUnits="userSpaceOnUse">
<stop stop-color="#006DF0"/>
<stop offset="1" stop-color="#00E7F0"/>
</linearGradient>
<linearGradient id="paint1_linear" x1="27.3125" y1="72.6863" x2="27.3125" y2="0.208561" gradientUnits="userSpaceOnUse">
<stop stop-color="#006DF0"/>
<stop offset="1" stop-color="#00E7F0"/>
</linearGradient>
<linearGradient id="paint2_linear" x1="166.844" y1="159.794" x2="166.844" y2="14.839" gradientUnits="userSpaceOnUse">
<stop stop-color="#006DF0"/>
<stop offset="1" stop-color="#00E7F0"/>
</linearGradient>
<linearGradient id="paint3_linear" x1="48.0938" y1="159.794" x2="48.0938" y2="14.839" gradientUnits="userSpaceOnUse">
<stop stop-color="#006DF0"/>
<stop offset="1" stop-color="#00E7F0"/>
</linearGradient>
<linearGradient id="paint4_linear" x1="1780.06" y1="1353.84" x2="1780.06" y2="49.2385" gradientUnits="userSpaceOnUse">
<stop stop-color="#006DF0"/>
<stop offset="1" stop-color="#00E7F0"/>
</linearGradient>
<linearGradient id="paint5_linear" x1="2282.38" y1="4363.39" x2="2282.38" y2="14.7324" gradientUnits="userSpaceOnUse">
<stop stop-color="#006DF0"/>
<stop offset="1" stop-color="#00E7F0"/>
</linearGradient>
<linearGradient id="paint6_linear" x1="252.344" y1="199.732" x2="252.344" y2="54.7765" gradientUnits="userSpaceOnUse">
<stop stop-color="#006DF0"/>
<stop offset="1" stop-color="#00E7F0"/>
</linearGradient>
<linearGradient id="paint7_linear" x1="133.594" y1="199.732" x2="133.594" y2="54.7765" gradientUnits="userSpaceOnUse">
<stop stop-color="#006DF0"/>
<stop offset="1" stop-color="#00E7F0"/>
</linearGradient>
<linearGradient id="paint8_linear" x1="424.591" y1="921.047" x2="424.591" y2="51.3152" gradientUnits="userSpaceOnUse">
<stop stop-color="#006DF0"/>
<stop offset="1" stop-color="#00E7F0"/>
</linearGradient>
</defs>
</svg>
