<svg width="69" height="68" viewBox="0 0 69 68" fill="none" xmlns="http://www.w3.org/2000/svg">
<path fill-rule="evenodd" clip-rule="evenodd" d="M12.8286 10.5469C11.761 5.0625 16.0312 0 21.5825 0C26.4933 0 30.55 4.00781 30.55 8.85938V19.8281C31.831 19.8281 33.1121 19.6172 34.3932 19.6172C35.6742 19.6172 36.7418 19.6172 38.0228 19.8281V8.85938C38.0228 4.00781 42.0795 0 46.9903 0C52.5416 0 56.8118 5.0625 55.9577 10.5469L53.6091 23.4141C61.936 27 68.3414 33.3281 68.3414 41.1328V45.9844C68.3414 52.5234 64.0712 58.0078 57.8793 61.5938C51.6875 65.3906 43.5741 67.5 34.3932 67.5C25.2122 67.5 17.0988 65.3906 10.907 61.5938C4.92866 58.0078 0.658447 52.5234 0.658447 45.9844V41.1328C0.658447 33.3281 6.85026 27 15.1772 23.4141L12.8286 10.5469ZM50.4065 25.1016L53.1821 9.91406C53.8226 6.11719 51.047 2.53125 46.9903 2.53125C43.5741 2.53125 40.7985 5.27344 40.7985 8.64844V22.5703C39.9444 22.3594 38.8769 22.3594 38.0228 22.3594C36.7418 22.3594 35.6742 22.1484 34.3932 22.1484C33.1121 22.1484 31.831 22.1484 30.55 22.3594C29.6959 22.3594 28.6284 22.5703 27.7743 22.5703V8.85938C27.7743 5.48437 24.9987 2.74219 21.5825 2.74219C17.7393 2.74219 14.7502 6.32813 15.6042 10.125L18.3798 25.3125C9.41239 28.6875 3.43409 34.5938 3.43409 41.3438V46.1953C3.43409 56.5312 17.3123 64.9688 34.3932 64.9688C51.474 64.9688 65.3522 56.5312 65.3522 46.1953V41.3438C65.5657 34.3828 59.5874 28.4766 50.4065 25.1016Z" fill="#633001"/>
<path d="M65.5651 45.9839C65.5651 56.3199 51.6869 64.7574 34.606 64.7574C17.5252 64.7574 3.64697 56.3199 3.64697 45.9839V41.1324H65.7786V45.9839H65.5651Z" fill="#FEDC90"/>
<path fill-rule="evenodd" clip-rule="evenodd" d="M15.6036 10.125C14.7495 6.32813 17.7387 2.74219 21.5819 2.74219C24.9981 2.74219 27.7737 5.48438 27.7737 8.85938V22.7813C29.9088 22.5703 32.0439 22.3594 34.3925 22.3594C36.5276 22.3594 38.6627 22.5703 40.7978 22.7813V8.85938C40.7978 5.48438 43.5735 2.74219 46.9897 2.74219C50.8329 2.74219 53.822 6.32813 53.1815 10.125L50.4058 25.3125C59.3733 28.6875 65.5651 34.5938 65.5651 41.3438C65.5651 51.6797 51.6869 60.1172 34.606 60.1172C17.5252 60.1172 3.64697 51.6797 3.64697 41.3438C3.64697 34.5938 9.62527 28.6875 18.5927 25.3125L15.6036 10.125Z" fill="#D1884F"/>
<path d="M25.8524 39.8676C25.8524 42.6098 24.3578 44.9301 22.4362 44.9301C20.5146 44.9301 19.02 42.6098 19.02 39.8676C19.02 37.1255 20.5146 34.8051 22.4362 34.8051C24.3578 34.8051 25.8524 37.1255 25.8524 39.8676Z" fill="#633001"/>
<path d="M49.5528 39.8676C49.5528 42.6098 48.0582 44.9301 46.1366 44.9301C44.215 44.9301 42.7205 42.6098 42.7205 39.8676C42.7205 37.1255 44.215 34.8051 46.1366 34.8051C48.0582 34.8051 49.5528 37.1255 49.5528 39.8676Z" fill="#633001"/>
</svg>
