<svg width="80" height="75" viewBox="0 0 80 75" fill="none" xmlns="http://www.w3.org/2000/svg">
<g clip-path="url(#clip0)">
<path d="M52.5 0H27.5C15.4381 0 5.625 9.16373 5.625 20.4274V54.2785C5.625 59.1058 9.83063 63.0331 15 63.0331H24.375V28.0147H15C13.9045 28.0147 12.8531 28.1927 11.875 28.5166V20.4274C11.875 12.3819 18.8844 5.8364 27.5 5.8364H52.5C61.1156 5.8364 68.125 12.3819 68.125 20.4274V28.5166C67.1469 28.1927 66.0955 28.0147 65 28.0147H55.625V63.0331H65C66.0955 63.0331 67.1469 62.8551 68.125 62.5312V65.9513C68.125 67.5604 66.7231 68.8695 65 68.8695H36.875V74.7059H65C70.1694 74.7059 74.375 70.7786 74.375 65.9513C74.375 64.6404 74.375 21.2702 74.375 20.4274C74.375 9.16373 64.5619 0 52.5 0ZM15 33.8511H18.125V57.1967H15C13.2769 57.1967 11.875 55.8876 11.875 54.2785C11.875 53.3162 11.875 37.8031 11.875 36.7693C11.875 35.1602 13.2769 33.8511 15 33.8511ZM68.125 54.2785C68.125 55.8876 66.7231 57.1967 65 57.1967H61.875V33.8511H65C66.7231 33.8511 68.125 35.1602 68.125 36.7693V54.2785Z" fill="url(#paint0_linear)"/>
</g>
<defs>
<linearGradient id="paint0_linear" x1="40" y1="74.7059" x2="40" y2="0" gradientUnits="userSpaceOnUse">
<stop stop-color="#009EFD"/>
<stop offset="1" stop-color="#2AF598"/>
</linearGradient>
<clipPath id="clip0">
<rect width="80" height="74.7059" fill="white"/>
</clipPath>
</defs>
</svg>
