<svg width="65" height="67" viewBox="0 0 65 67" fill="none" xmlns="http://www.w3.org/2000/svg">
<path d="M56.2075 39.5813C55.6959 39.9372 55.0987 40.1472 54.4787 40.1893C53.8588 40.2313 53.2392 40.1038 52.685 39.8201C51.3842 39.0781 50.683 37.3383 50.683 34.9673V27.7009C50.683 24.2127 49.3146 21.7309 47.0254 21.0572C43.1566 19.9143 40.2677 24.6989 39.1526 26.4984L32.3104 37.6794V24.0336C32.2344 20.8866 31.2208 19.0018 29.3032 18.4389C28.0362 18.0636 26.1356 18.2171 24.2856 21.0657L8.98779 45.8584C6.95235 41.9266 5.89696 37.5531 5.91302 33.1166C5.91302 18.1745 17.7391 6.0212 32.3104 6.0212C46.8818 6.0212 58.7501 18.1745 58.7501 33.1166V33.1934C58.7501 33.1934 58.7501 33.2445 58.7501 33.2701C58.8937 36.1613 57.9645 38.4641 56.2159 39.5813H56.2075ZM64.6547 33.1251V32.9802C64.5364 14.7716 50.0748 0 32.3104 0C14.546 0 0 14.8569 0 33.1166C0 51.3764 14.4954 66.2418 32.3104 66.2418C40.4812 66.2414 48.3411 63.0793 54.2731 57.4061C54.8489 56.8584 55.1877 56.1037 55.2162 55.3055C55.2446 54.5073 54.9604 53.7299 54.4251 53.1418C54.169 52.8557 53.8593 52.6236 53.514 52.4588C53.1686 52.2941 52.7944 52.1998 52.4129 52.1816C52.0313 52.1634 51.65 52.2215 51.2908 52.3526C50.9316 52.4837 50.6016 52.6853 50.3198 52.9457C47.7659 55.3916 44.7488 57.2913 41.4496 58.5306C38.1504 59.7699 34.6372 60.3234 31.1209 60.1577C27.6046 59.992 24.1577 59.1106 20.9872 57.5664C17.8167 56.0223 14.9879 53.8472 12.6708 51.1717L26.4397 28.8267V39.1378C26.4397 44.0929 28.3403 45.6963 29.9368 46.1654C31.5333 46.6345 33.9745 46.3104 36.534 42.1143L44.1365 29.6881C44.373 29.2873 44.6011 28.9461 44.8038 28.6476V34.9673C44.8038 39.5984 46.6453 43.2998 49.8721 45.1249C51.3394 45.9246 52.9928 46.311 54.6589 46.2435C56.3249 46.176 57.9423 45.657 59.3414 44.7411C62.8892 42.4128 64.8236 38.1997 64.6209 33.1251H64.6547Z" fill="black"/>
</svg>
